<svg xmlns="http://www.w3.org/2000/svg" data-name="Layer 1" viewBox="0 0 100 125" x="0px" y="0px"><title>96all</title><path d="M50.93,35.11A10.64,10.64,0,1,0,40.29,24.47,10.65,10.65,0,0,0,50.93,35.11Zm0-15.28a4.64,4.64,0,1,1-4.64,4.64A4.65,4.65,0,0,1,50.93,19.83Z"/><path d="M90.09,53.57V17.81a13,13,0,0,0-13-13H14.27a13,13,0,0,0-13,13V62.35a13,13,0,0,0,13,13H52.1a23.45,23.45,0,1,0,38-21.78ZM7.27,62.35V17.81a7,7,0,0,1,7-7H77.09a7,7,0,0,1,7,7V50a23.32,23.32,0,0,0-8.82-1.73c-.43,0-.86,0-1.29,0L66.38,41a9,9,0,0,0-11.87-.55l-4,3.23L42.56,35A9,9,0,0,0,36,32a9.21,9.21,0,0,0-6.62,2.8L10.33,54.88a3,3,0,0,0,2.17,5.07H55a23.28,23.28,0,0,0-3.07,9.41H14.27A7,7,0,0,1,7.27,62.35ZM59.91,54l-5.39-5.92,3.74-3a3,3,0,0,1,4,.18l4.69,4.52A23.48,23.48,0,0,0,59.91,54Zm-8.2-.09H19.49L33.73,39A3.16,3.16,0,0,1,35.94,38a3,3,0,0,1,2.19,1ZM75.27,89.19A17.38,17.38,0,0,1,57.85,72.58c0-.08,0-.15,0-.22a3,3,0,0,0-.05-.5s0-.08,0-.12A17.47,17.47,0,0,1,75.27,54.28,17.45,17.45,0,0,1,92.73,71.74,17.47,17.47,0,0,1,75.27,89.19Z"/><path d="M84.55,68.74H78.27V62.47a3,3,0,0,0-6,0v6.27H66a3,3,0,0,0,0,6h6.27V81a3,3,0,0,0,6,0V74.74h6.27a3,3,0,0,0,0-6Z"/><text x="0" y="115" fill="#000000" font-size="5px" font-weight="bold" font-family="'Helvetica Neue', Helvetica, Arial-Unicode, Arial, Sans-serif">Created by Lakshisha</text><text x="0" y="120" fill="#000000" font-size="5px" font-weight="bold" font-family="'Helvetica Neue', Helvetica, Arial-Unicode, Arial, Sans-serif">from the Noun Project</text></svg>